<svg id="Glyph" xmlns="http://www.w3.org/2000/svg" viewBox="0 0 64 64"><defs><style>.cls-1{fill:#231f20;}</style></defs><title>1</title><path class="cls-1" d="M59.38,56.35H55.37V24.69a.99655.99655,0,0,0-1-1H47.11a.99654.99654,0,0,0-1,1V56.35H43V34.58a1.003,1.003,0,0,0-1-1H34.75a.99654.99654,0,0,0-1,1V56.35H30.63V44a.99654.99654,0,0,0-1-1H22.38a1.003,1.003,0,0,0-1,1V56.35H18.27V48.87a1.003,1.003,0,0,0-1-1H10.01a1.003,1.003,0,0,0-1,1v7.48H5.62V8a1,1,0,0,0-2,0V57.35a1.003,1.003,0,0,0,1,1H59.38a1,1,0,1,0,0-2Z"/></svg>