<?xml version="1.0" encoding="utf-8"?>
<!-- Generator: Adobe Illustrator 22.0.1, SVG Export Plug-In . SVG Version: 6.00 Build 0)  -->
<svg version="1.1" id="Layer_1" xmlns="http://www.w3.org/2000/svg" xmlns:xlink="http://www.w3.org/1999/xlink" x="0px" y="0px"
	 viewBox="0 0 68 68" style="enable-background:new 0 0 68 68;" xml:space="preserve">
<g>
	<g>
		<g>
			<g>
				<g>
					<path d="M33.4248047,24.996582c-6.4814453,0-11.7543945-5.2766113-11.7543945-11.762207
						c0-6.4814453,5.2729492-11.7543945,11.7543945-11.7543945S45.1791992,6.7529297,45.1791992,13.234375
						C45.1791992,19.7199707,39.90625,24.996582,33.4248047,24.996582z M33.4248047,2.9799805
						c-5.6542969,0-10.2543945,4.6000977-10.2543945,10.2543945c0,5.6586914,4.6000977,10.262207,10.2543945,10.262207
						s10.2543945-4.6035156,10.2543945-10.262207C43.6791992,7.5800781,39.0791016,2.9799805,33.4248047,2.9799805z"/>
				</g>
			</g>
		</g>
		<g>
			<g>
				<g>
					<path d="M52.2783203,45.9680176H15.7216797c-0.4140625,0-0.75-0.3356934-0.75-0.75v-5.2192383
						c0-7.4187012,6.0424805-13.4541016,13.4692383-13.4541016h10.7451172c7.6328125,0,13.8422852,6.0354004,13.8422852,13.4541016
						v5.2192383C53.0283203,45.6323242,52.6923828,45.9680176,52.2783203,45.9680176z M16.4716797,44.4680176h35.0566406v-4.4692383
						c0-6.5915527-5.5366211-11.9541016-12.3422852-11.9541016H28.440918c-6.6000977,0-11.9692383,5.3625488-11.9692383,11.9541016
						V44.4680176z"/>
				</g>
			</g>
		</g>
		<g>
			<g>
				<g>
					<path d="M19.7211914,41.9682617c-0.4140625,0-0.75-0.3356934-0.75-0.75v-1.2197266
						c0-5.2126465,4.2480469-9.4536133,9.4697266-9.4536133c0.4140625,0,0.75,0.3356934,0.75,0.75s-0.3359375,0.75-0.75,0.75
						c-4.3945313,0-7.9697266,3.5678711-7.9697266,7.9536133v1.2197266
						C20.4711914,41.6325684,20.1352539,41.9682617,19.7211914,41.9682617z"/>
				</g>
			</g>
		</g>
	</g>
	<g>
		<g>
			<g>
				<path d="M57.3125,52.4599609h-46.625c-0.4140625,0-0.75-0.3356934-0.75-0.75v-6.4919434c0-0.4143066,0.3359375-0.75,0.75-0.75
					h46.625c0.4140625,0,0.75,0.3356934,0.75,0.75v6.4919434C58.0625,52.1242676,57.7265625,52.4599609,57.3125,52.4599609z
					 M11.4375,50.9599609h45.125v-4.9919434h-45.125V50.9599609z"/>
			</g>
		</g>
	</g>
	<g>
		<g>
			<g>
				<path d="M53.7202148,66.5200195H14.2802734c-0.4140625,0-0.75-0.3356934-0.75-0.75V51.7099609
					c0-0.4143066,0.3359375-0.75,0.75-0.75h39.4399414c0.4140625,0,0.75,0.3356934,0.75,0.75v14.0600586
					C54.4702148,66.1843262,54.1342773,66.5200195,53.7202148,66.5200195z M15.0302734,65.0200195h37.9399414V52.4599609H15.0302734
					V65.0200195z"/>
			</g>
		</g>
	</g>
	<g>
		<g>
			<g>
				<path d="M55.8500977,45.9699707c-0.4140625,0-0.75-0.3356934-0.75-0.75V32.9301758
					c0-3.2590332-1.6054688-6.3041992-4.2944336-8.145752l-2.5195313-1.7255859
					c-0.3417969-0.2341309-0.4291992-0.7009277-0.1948242-1.0427246c0.2338867-0.342041,0.7011719-0.4284668,1.0424805-0.1950684
					l2.5195313,1.7255859c3.0976563,2.121582,4.9467773,5.6293945,4.9467773,9.3835449v12.2897949
					C56.6000977,45.6342773,56.2641602,45.9699707,55.8500977,45.9699707z"/>
			</g>
		</g>
	</g>
	<g>
		<g>
			<g>
				<path d="M47.1000977,24.0400391c-1.4941406,0-2.7099609-1.2155762-2.7099609-2.7099609
					c0-1.4887695,1.2158203-2.6999512,2.7099609-2.6999512s2.7099609,1.2111816,2.7099609,2.6999512
					C49.8100586,22.8244629,48.5942383,24.0400391,47.1000977,24.0400391z M47.1000977,20.130127
					c-0.6669922,0-1.2099609,0.5383301-1.2099609,1.1999512c0,0.6672363,0.5429688,1.2099609,1.2099609,1.2099609
					s1.2099609-0.5427246,1.2099609-1.2099609C48.3100586,20.668457,47.7670898,20.130127,47.1000977,20.130127z"/>
			</g>
		</g>
	</g>
</g>
</svg>
