<?xml version="1.0" encoding="UTF-8"?><svg width="512" height="512" version="1.1" viewBox="0 0 512 512" xmlns="http://www.w3.org/2000/svg" xmlns:xlink="http://www.w3.org/1999/xlink"><!--Generated by IJSVG (https://github.com/iconjar/IJSVG)--><g transform="scale(8)"><path fill="#000" d="M56,13h-48c-0.552,0 -1,0.448 -1,1v36c0,0.553 0.448,1 1,1h48c0.553,0 1,-0.447 1,-1v-36c0,-0.552 -0.447,-1 -1,-1Zm-1,6h-14v-4h14v4Zm-30,0v-4h14v4h-14Zm14,2v28h-14v-28h14Zm-16,-6v4h-14v-4h14Zm-14,6h14v28h-14v-28Zm32,28v-28h14v28h-14Z"></path><path fill="#000" d="M18,31h-4c-0.552,0 -1,0.448 -1,1c0,0.552 0.448,1 1,1h4c0.552,0 1,-0.448 1,-1c0,-0.552 -0.448,-1 -1,-1Z"></path><path fill="#000" d="M18,37h-4c-0.552,0 -1,0.447 -1,1c0,0.553 0.448,1 1,1h4c0.552,0 1,-0.447 1,-1c0,-0.553 -0.448,-1 -1,-1Z"></path><path fill="#000" d="M18,43h-4c-0.552,0 -1,0.447 -1,1c0,0.553 0.448,1 1,1h4c0.552,0 1,-0.447 1,-1c0,-0.553 -0.448,-1 -1,-1Z"></path><path fill="#000" d="M30,33h4c0.553,0 1,-0.448 1,-1c0,-0.552 -0.447,-1 -1,-1h-4c-0.552,0 -1,0.448 -1,1c0,0.552 0.448,1 1,1Z"></path><path fill="#000" d="M30,39h4c0.553,0 1,-0.447 1,-1c0,-0.553 -0.447,-1 -1,-1h-4c-0.552,0 -1,0.447 -1,1c0,0.553 0.448,1 1,1Z"></path><path fill="#000" d="M34,43h-4c-0.552,0 -1,0.447 -1,1c0,0.553 0.448,1 1,1h4c0.553,0 1,-0.447 1,-1c0,-0.553 -0.447,-1 -1,-1Z"></path><path fill="#000" d="M50,31h-4c-0.553,0 -1,0.448 -1,1c0,0.552 0.447,1 1,1h4c0.553,0 1,-0.448 1,-1c0,-0.552 -0.447,-1 -1,-1Z"></path><path fill="#000" d="M50,37h-4c-0.553,0 -1,0.447 -1,1c0,0.553 0.447,1 1,1h4c0.553,0 1,-0.447 1,-1c0,-0.553 -0.447,-1 -1,-1Z"></path><path fill="#000" d="M50,43h-4c-0.553,0 -1,0.447 -1,1c0,0.553 0.447,1 1,1h4c0.553,0 1,-0.447 1,-1c0,-0.553 -0.447,-1 -1,-1Z"></path><path fill="#000" d="M14,27h4c0.552,0 1,-0.448 1,-1c0,-0.552 -0.448,-1 -1,-1h-4c-0.552,0 -1,0.448 -1,1c0,0.552 0.448,1 1,1Z"></path><path fill="#000" d="M30,27h4c0.553,0 1,-0.448 1,-1c0,-0.552 -0.447,-1 -1,-1h-4c-0.552,0 -1,0.448 -1,1c0,0.552 0.448,1 1,1Z"></path><path fill="#000" d="M50,25h-4c-0.553,0 -1,0.448 -1,1c0,0.552 0.447,1 1,1h4c0.553,0 1,-0.448 1,-1c0,-0.552 -0.447,-1 -1,-1Z"></path></g></svg>