<?xml version="1.0" encoding="utf-8"?>
<!-- Generator: Adobe Illustrator 24.0.0, SVG Export Plug-In . SVG Version: 6.00 Build 0)  -->
<svg version="1.1" id="icons" xmlns="http://www.w3.org/2000/svg" xmlns:xlink="http://www.w3.org/1999/xlink" x="0px" y="0px"
	 viewBox="0 0 340 340" style="enable-background:new 0 0 340 340;" xml:space="preserve">
<g>
	<path d="M327.5,207.4l-58.8-37.5c5.2-12.3,8.1-25.8,8.1-39.9c0-56.4-45.9-102.3-102.3-102.3C118.1,27.7,72.2,73.6,72.2,130
		c0,44.1,28.1,81.8,67.3,96.1l-0.2,1.2c-0.8,5.3-2.5,10-5.1,14.1c-3.8,6-8.8,9.8-14.7,11.2c0,0-0.1,0-0.1,0
		c-0.4,0.1-37.7,10.7-32.7,56c0.2,2,1.9,3.6,4,3.6h28.7c1.1,0,2.1-0.4,2.8-1.2s1.2-1.8,1.2-2.9c0-0.2,0-18.3,13.3-25.4
		c0.8-0.4,1.7-0.8,2.7-1.1l0.3-0.1c5.7-2.1,25-11.1,32.4-36.4c0.6-2.1-0.6-4.3-2.7-5c-2.1-0.6-4.3,0.6-5,2.7
		c-6.5,22.3-24,29.8-27.5,31.1l-0.3,0.1c-1.2,0.4-2.4,0.9-3.7,1.6c-13.3,7.1-16.5,21.5-17.2,28.5H94.2
		c-2.1-35.1,25.4-43.4,27.1-43.9c7.9-1.9,14.7-7,19.6-14.7c3.2-5.1,5.3-10.8,6.2-17.2c8.7,2.4,17.9,3.7,27.3,3.7
		c31.6,0,59.9-14.4,78.6-36.9l58.4,37.2c2.5,1.6,5.2,2.3,8,2.3c4.9,0,9.7-2.4,12.6-6.9c2.1-3.4,2.8-7.3,2-11.2
		C333.2,212.9,330.8,209.5,327.5,207.4z M174.5,224.3c-52,0-94.3-42.3-94.3-94.3s42.3-94.3,94.3-94.3S268.8,78,268.8,130
		S226.5,224.3,174.5,224.3z M325.3,223.7c-2,3.2-6.3,4.2-9.5,2.1L258,189c2.7-3.7,5.1-7.7,7.2-11.8l58,36.9c1.6,1,2.6,2.5,3,4.3
		S326.3,222.1,325.3,223.7z"/>
	<path d="M247.5,103.4c-0.8-2.1-3.1-3.1-5.1-2.4c-2.1,0.8-3.1,3.1-2.4,5.1c2.8,7.6,4.2,15.7,4.2,23.9c0,38.4-31.3,69.7-69.7,69.7
		s-69.7-31.3-69.7-69.7s31.3-69.7,69.7-69.7c13.7,0,26.9,4,38.3,11.4c1.8,1.2,4.3,0.7,5.5-1.1c1.2-1.8,0.7-4.3-1.1-5.5
		c-12.7-8.3-27.4-12.8-42.7-12.8c-42.8,0-77.7,34.8-77.7,77.7s34.8,77.7,77.7,77.7s77.7-34.8,77.7-77.7
		C252.1,120.8,250.6,111.9,247.5,103.4z"/>
	<path d="M228.9,86.4c0.8,1,1.9,1.5,3.1,1.5c0.9,0,1.8-0.3,2.5-0.9c1.7-1.4,2-3.9,0.6-5.6l-0.5-0.7c-1.4-1.7-3.9-2-5.6-0.6
		c-1.7,1.4-2,3.9-0.6,5.6L228.9,86.4z"/>
	<path d="M7.1,212.4c1.1,0.9,2.6,1.2,3.9,0.7l11.3-4.2c4.8,14.2,16.1,55.7,15.9,99.4c0,1.1,0.4,2.1,1.2,2.8c0.8,0.8,1.8,1.2,2.8,1.2
		h21.7c1.1,0,2.1-0.4,2.9-1.2c0.8-0.8,1.2-1.8,1.1-2.9c-0.1-3-1.8-71.3-17.7-109.8l9.7-3.6c1.4-0.5,2.4-1.7,2.6-3.2
		c0.2-1.5-0.4-2.9-1.6-3.8l-40.7-29.6c-1.1-0.8-2.6-1-3.9-0.5c-1.3,0.5-2.2,1.7-2.4,3l-8.1,47.8C5.4,210.1,6,211.5,7.1,212.4z
		 M20.6,168.5L50,190l-6.7,2.5c-1,0.4-1.9,1.2-2.3,2.2s-0.4,2.2,0.1,3.2c14.5,31.1,17.9,90.4,18.6,106.4H46.2
		c-0.5-48.4-14.3-93.3-17.7-102.1c-0.8-2-3.1-3-5.1-2.3l-8.6,3.2L20.6,168.5z"/>
	<path d="M242.1,231.3c-1.2-0.9-2.8-1-4.2-0.3c-1.3,0.7-2.2,2.1-2.2,3.6v14.3c-33.8,6.1-53.8,21-64.8,32.7
		c-12.4,13.2-16.2,25.1-16.4,25.6c-0.4,1.2-0.2,2.5,0.6,3.6c0.8,1,2,1.6,3.2,1.6h29.1c1.4,0,2.7-0.7,3.4-1.9
		c13.7-22,34.1-28.8,42.8-30.8l0.5,10.9c0.1,1.5,0.9,2.8,2.2,3.4c1.3,0.6,2.9,0.5,4.1-0.3c18.7-13.2,38.1-24.3,38.2-24.4
		c1.1-0.6,1.8-1.6,2-2.8c0.2-1.2-0.2-2.4-1-3.3C268,250.1,243.1,232,242.1,231.3z M241.9,282.9l-0.4-8.2c-0.1-1.1-0.5-2.1-1.4-2.8
		c-0.8-0.7-1.9-1.1-3-1c-1.3,0.1-31.9,3.2-51.8,33.4h-20.9c6-11.8,25.4-40.2,75.9-48.2c1.9-0.3,3.4-2,3.4-4v-9.7
		c7.1,5.4,18.7,14.5,26.6,22.4C264.5,268.3,253.4,275.1,241.9,282.9z"/>
	<path d="M185.6,71.9c-1.4-0.3-2.8,0.2-3.7,1.2l-61.6,67.5c-1,1.1-1.3,2.6-0.9,3.9c0.4,1.4,1.6,2.4,3,2.7l24.4,5.2l-4.1,27.6
		c-0.3,2.2,1.2,4.2,3.4,4.5c2.2,0.3,4.2-1.2,4.5-3.4l4.6-31.3c0.3-2.1-1.1-4.1-3.1-4.5l-21.3-4.6l52.6-57.6l28.6,73l-23.6-3.1
		c-2.1-0.3-4.1,1.2-4.5,3.3l-5.2,30c-0.4,2.2,1.1,4.2,3.3,4.6c0.2,0,0.5,0.1,0.7,0.1c1.9,0,3.6-1.4,3.9-3.3l4.5-26.2l26.5,3.5
		c1.4,0.2,2.8-0.4,3.7-1.5c0.9-1.1,1.1-2.6,0.6-3.9l-33.4-85.3C188,73.1,186.9,72.2,185.6,71.9z"/>
</g>
</svg>
