<?xml version="1.0" encoding="utf-8"?>
<!-- Generator: Adobe Illustrator 27.3.0, SVG Export Plug-In . SVG Version: 6.00 Build 0)  -->
<svg version="1.1" id="Layer_1" xmlns="http://www.w3.org/2000/svg" xmlns:xlink="http://www.w3.org/1999/xlink" x="0px" y="0px"
	 viewBox="0 0 512 512" style="enable-background:new 0 0 512 512;" xml:space="preserve">
<style type="text/css">
	.st0{fill:#FFFFFF;}
	.st1{fill:#2D7ABE;stroke:#FFFFFF;stroke-width:5;stroke-miterlimit:10;}
</style>
<g>
	<path class="st0" d="M139,266.7c14.8-5.2,24.6-6.1,80.5-8c64.3-2.1,74-1.7,88.5,2.3c14.1,3.8,33.5,9.1,50.8,24
		c36.4,31.3,52.9,95.8,29.1,126.8c-16.8,21.8-42.7,12.9-146.2,13.7c-126.9,1-157.7,15-176-9.4c-22.8-30.3-5.9-92.8,28.1-124.2
		C110.1,276.9,128.6,270.3,139,266.7z"/>
	<g id="XMLID_00000177459392265960793950000008467979686119622832_">
		<g>
			<rect x="-408.5" y="390.6" class="st0" width="201.4" height="65.1"/>
			<path class="st0" d="M95.9,204.3c0,2.2,0.6,4.3,1.8,6c0.2,0.2,0.2,0.2,0.3,0.3c0,0.2,0.2,0.2,0.2,0.3c2.1,2.7,5.4,4.6,9.1,4.6
				c6.3,0,11.4-4.9,11.4-11.1c0-6-5-10.9-11.4-10.9C101,193.3,95.9,198.3,95.9,204.3z"/>
			<path class="st0" d="M235.4,36.3c-53,0-96,42.2-96,93.8c0,51.8,43.1,94,96,94s96-42.2,96-94C331.5,78.4,288.3,36.3,235.4,36.3z"
				/>
			<path d="M-416.4,386.7v72.9c0,2.2,1.7,3.9,4,3.9H-203c2.2,0,4-1.7,4-3.9v-72.9c0-2.2-1.7-3.9-4-3.9h-209.4
				C-414.6,382.8-416.4,384.6-416.4,386.7z M-408.5,455.7v-65.1h201.4v65.1H-408.5z"/>
			<path d="M18.3,416v6.8c0,3.5,2.8,6.5,6.3,6.8H26c3.6-0.3,6.3-3.3,6.3-6.8V416H18.3z"/>
			<path d="M18.3,310.5V416h14.1V310.5c0-29.8,15.1-57.7,40.2-74.5l18.7-12.5c-3.6-2.9-6.5-6.8-7.9-11.3l-18.5,12.4
				C35.6,243.9,18.3,276.1,18.3,310.5z"/>
			<path d="M24.6,429.8c0.2,0,0.5,0,0.6,0c0.2,0,0.5,0,0.6,0H24.6z"/>
			<path d="M26,429.8h32.8c-3.9,0-7-3-7-6.8v-6.8H32.4v6.8C32.4,426.5,29.6,429.3,26,429.8z"/>
			<path d="M51.8,416v6.8c0,3.8,3.1,6.8,7,6.8h342.4c3.9,0,7-3,7-6.8V416h-14.1H65.8H51.8z"/>
			<path d="M51.8,375.1V416h14.1v-40.9c0-60.4,51.9-109.3,115.7-109.3h100.7c61.8,0,112.1,49.1,112.1,109.3V416h14.1v-40.9
				c0-67.8-56.6-123.1-126.2-123.1H181.6C109.9,252,51.8,307.3,51.8,375.1z"/>
			<path d="M81.8,204.3c0,2.7,0.5,5.4,1.3,7.9l5-3.3c3.1-2.1,7.3-1.4,9.6,1.4c-1.1-1.7-1.8-3.8-1.8-6c0-6,5-10.9,11.4-10.9
				s11.4,4.9,11.4,10.9c0,6.2-5,11.1-11.4,11.1c-3.7,0-7-1.7-9.1-4.6c1.9,3.2,1.1,7.1-1.9,9.2l-5,3.3c4.4,3.5,10.1,5.7,16.1,5.7
				c13.9,0,25.5-11.1,25.5-24.9c0-13.6-11.4-24.7-25.5-24.7C93.4,179.6,81.8,190.6,81.8,204.3z"/>
			<path d="M88.3,208.7l-5,3.3c1.5,4.4,4.4,8.4,7.9,11.3l5-3.3c3.1-2.1,3.9-6.2,1.9-9.2c-0.2-0.2-0.3-0.3-0.5-0.6
				C95.5,207.4,91.2,206.7,88.3,208.7z"/>
			<path d="M98.1,210.6c0-0.2-0.2-0.2-0.3-0.3c0.2,0.2,0.3,0.3,0.5,0.6C98.1,210.8,98.1,210.6,98.1,210.6z"/>
			<path d="M235.4,22.7c-60.7,0-110.1,48.3-110.1,107.6c0,59.4,49.3,107.6,110.1,107.6s110.1-48.3,110.1-107.6
				C345.6,70.8,296.1,22.7,235.4,22.7z M139.4,130.1c0-51.8,43.1-93.8,96-93.8c52.9,0,96,42.2,96,93.8c0,51.8-43.1,94-96,94
				C182.4,224.1,139.4,181.9,139.4,130.1z"/>
			<rect x="436.9" y="252" class="st1" width="57.4" height="243.8"/>
			<rect x="351.6" y="293.7" class="st1" width="57.4" height="202.2"/>
			<rect x="266.5" y="339.6" class="st1" width="57.4" height="156.3"/>
			<rect x="181.4" y="394.8" class="st1" width="57.4" height="101"/>
		</g>
	</g>
	<path class="st0" d="M59.1,420.8"/>
</g>
</svg>
